<?xml version="1.0" encoding="UTF-8" standalone="no"?>
<!-- Generator: Adobe Illustrator 14.0.0, SVG Export Plug-In . SVG Version: 6.00 Build 43363)  -->

<svg
   xmlns:dc="http://purl.org/dc/elements/1.1/"
   xmlns:cc="http://creativecommons.org/ns#"
   xmlns:rdf="http://www.w3.org/1999/02/22-rdf-syntax-ns#"
   xmlns:svg="http://www.w3.org/2000/svg"
   xmlns="http://www.w3.org/2000/svg"
   xmlns:sodipodi="http://sodipodi.sourceforge.net/DTD/sodipodi-0.dtd"
   xmlns:inkscape="http://www.inkscape.org/namespaces/inkscape"
   version="1.1"
   id="Layer_1"
   x="0px"
   y="0px"
   width="260px"
   height="160px"
   viewBox="0 0 260 160"
   enable-background="new 0 0 260 160"
   xml:space="preserve"
   inkscape:version="0.48.3.1 r9886"
   sodipodi:docname="logo.svg"><metadata
   id="metadata603"><rdf:RDF><cc:Work
       rdf:about=""><dc:format>image/svg+xml</dc:format><dc:type
         rdf:resource="http://purl.org/dc/dcmitype/StillImage" /></cc:Work></rdf:RDF></metadata><defs
   id="defs601" /><sodipodi:namedview
   pagecolor="#ffffff"
   bordercolor="#666666"
   borderopacity="1"
   objecttolerance="10"
   gridtolerance="10"
   guidetolerance="10"
   inkscape:pageopacity="0"
   inkscape:pageshadow="2"
   inkscape:window-width="640"
   inkscape:window-height="480"
   id="namedview599"
   showgrid="false"
   inkscape:zoom="1.1230769"
   inkscape:cx="248.72167"
   inkscape:cy="93.722218"
   inkscape:window-x="297"
   inkscape:window-y="105"
   inkscape:window-maximized="0"
   inkscape:current-layer="Layer_1" />
<path
   fill="#EB7E24"
   stroke="#000000"
   stroke-width="4"
   stroke-linecap="round"
   stroke-linejoin="round"
   d="M152.156,79.642  c-3.436,14.216-0.568,32.027,10.637,44.845c5.784,6.617,15.536,16.844,43.656,16.844c11.658,0,33.102-5.635,42.945-31.822  c13.051-34.72-7.568-70.989-47.898-72.982C162.377,34.593,155.227,66.939,152.156,79.642z"
   id="path3" />
<path
   fill="#EB7E24"
   stroke="#000000"
   stroke-width="2"
   stroke-linecap="round"
   stroke-linejoin="round"
   d="M31.142,89.978  c-8.874-8.129,3.125,25.781-18.49,30.338c-5.424,1.145,0.986-5.67-0.247-11.096c-6.232-27.41,2.486-36.664,8.958-40.935  c7.848-5.179,18.664-0.497,19.153,1.726"
   id="path5" />
<path
   fill="#EE9CB0"
   stroke="#000000"
   stroke-width="2"
   stroke-linecap="round"
   stroke-linejoin="round"
   d="M26.07,66.885  c0,0,0.693-4.979,2.071-5.062c1.379-0.083,2.499,4.917,2.499,4.917L26.07,66.885z"
   id="path7" />
<path
   fill="#EE9CB0"
   stroke="#000000"
   stroke-width="2"
   stroke-linecap="round"
   stroke-linejoin="round"
   d="M19.658,70.509  c0,0-2.056-4.587-0.932-5.389s4.728,2.84,4.728,2.84L19.658,70.509z"
   id="path9" />
<path
   fill="#EE9CB0"
   stroke="#000000"
   stroke-width="2"
   stroke-linecap="round"
   stroke-linejoin="round"
   d="M14.759,75.979  c0,0-3.51-3.598-2.731-4.738c0.779-1.14,5.417,1.038,5.417,1.038L14.759,75.979z"
   id="path11" />
<path
   fill="#EE9CB0"
   stroke="#000000"
   stroke-width="2"
   stroke-linecap="round"
   stroke-linejoin="round"
   d="M12.095,82.907  c0,0-4.561-2.114-4.239-3.456c0.322-1.343,5.432-0.959,5.432-0.959L12.095,82.907z"
   id="path13" />
<path
   fill="#EE9CB0"
   stroke="#000000"
   stroke-width="2"
   stroke-linecap="round"
   stroke-linejoin="round"
   d="M10.867,90.179  c0,0-4.821-1.42-4.7-2.795c0.122-1.375,5.232-1.746,5.232-1.746L10.867,90.179z"
   id="path15" />
<path
   fill="#EE9CB0"
   stroke="#000000"
   stroke-width="2"
   stroke-linecap="round"
   stroke-linejoin="round"
   d="M11.007,97.364  c0,0-4.988-0.621-5.091-1.998c-0.103-1.377,4.88-2.57,4.88-2.57L11.007,97.364z"
   id="path17" />
<path
   fill="#EE9CB0"
   stroke="#000000"
   stroke-width="2"
   stroke-linecap="round"
   stroke-linejoin="round"
   d="M11.867,104.259  c0,0-5.019-0.271-5.218-1.637c-0.198-1.367,4.689-2.904,4.689-2.904L11.867,104.259z"
   id="path19" />
<path
   stroke="#000000"
   stroke-linecap="round"
   stroke-linejoin="round"
   d="M226.129,109.616c-2.975-5.551-13.479-8.012-17.74-8.227  c-4.262-0.213-14.57-1.287-18.038,7.137c-2.334,5.668-0.987,8.205,0.446,13.334c3.923,3.965,8.736,6.803,14.24,7.451  c5.494,0.646,11.202-1.352,16.071-4.4C222.242,123.544,229.098,115.159,226.129,109.616z"
   id="path21" />
<g
   id="g23">
	
		<ellipse
   transform="matrix(0.9956 -0.094 0.094 0.9956 -7.3229 19.5257)"
   fill="#C69C6D"
   stroke="#000000"
   stroke-width="0.5"
   cx="203.683"
   cy="87.525"
   rx="2.775"
   ry="2.035"
   id="ellipse25" />
	<g
   id="g27">
		
			<ellipse
   transform="matrix(0.9956 -0.0939 0.0939 0.9956 -7.2715 19.559)"
   stroke="#000000"
   stroke-width="0.5"
   cx="204.215"
   cy="87.053"
   rx="1.862"
   ry="1.365"
   id="ellipse29" />
		<path
   d="M198.729,88.517c-0.126-0.057,2.686-3.191,4.783-3.24c0.139-0.004,0.242,0.129,0.231,0.268    c-0.009,0.137-0.132,0.242-0.267,0.23C202.311,85.688,198.77,88.536,198.729,88.517z"
   id="path31" />
		<path
   opacity="0.5"
   d="M198.729,88.751c-0.236-0.037,2.609-2.838,4.709-2.838c0.138,0,0.241,0.131,0.23,0.268    c-0.009,0.139-0.131,0.242-0.267,0.232C202.236,86.325,198.943,88.784,198.729,88.751z"
   id="path33" />
	</g>
</g>
<g
   id="g35">
	
		<ellipse
   transform="matrix(-0.9239 -0.3825 0.3825 -0.9239 378.1614 251.9965)"
   fill="#C69C6D"
   stroke="#000000"
   stroke-width="0.5"
   cx="214.132"
   cy="88.404"
   rx="2.775"
   ry="2.035"
   id="ellipse37" />
	<g
   id="g39">
		
			<ellipse
   transform="matrix(-0.924 -0.3823 0.3823 -0.924 377.7208 250.6429)"
   stroke="#000000"
   stroke-width="0.5"
   cx="213.762"
   cy="87.795"
   rx="1.862"
   ry="1.364"
   id="ellipse41" />
		<path
   d="M218.577,90.808c0.137-0.02-1.629-3.842-3.621-4.504c-0.131-0.043-0.269,0.053-0.3,0.188s0.055,0.27,0.188,0.301    C215.982,87.05,218.531,90.813,218.577,90.808z"
   id="path43" />
		<path
   opacity="0.5"
   d="M218.467,91.146c0.277-0.199-1.629-3.842-3.621-4.504c-0.131-0.043-0.269,0.053-0.3,0.188    c-0.03,0.135,0.069,0.232,0.188,0.299C215.922,87.794,218.43,91.171,218.467,91.146z"
   id="path45" />
	</g>
</g>
<radialGradient
   id="SVGID_1_"
   cx="153.0127"
   cy="65.208"
   r="18.6612"
   gradientTransform="matrix(1.1893 0 0 1.1893 25.5181 32.0856)"
   gradientUnits="userSpaceOnUse">
	<stop
   offset="0"
   style="stop-color:#C69C6D"
   id="stop48" />
	<stop
   offset="0.143"
   style="stop-color:#A17E56"
   id="stop50" />
	<stop
   offset="0.2944"
   style="stop-color:#816442"
   id="stop52" />
	<stop
   offset="0.4522"
   style="stop-color:#685033"
   id="stop54" />
	<stop
   offset="0.6168"
   style="stop-color:#574128"
   id="stop56" />
	<stop
   offset="0.7929"
   style="stop-color:#4C3921"
   id="stop58" />
	<stop
   offset="1"
   style="stop-color:#49361F"
   id="stop60" />
</radialGradient>
<path
   fill="url(#SVGID_1_)"
   stroke="#000000"
   stroke-linecap="round"
   stroke-linejoin="round"
   d="M220.582,96.501  c-0.033-0.02-0.069-0.037-0.104-0.057c-0.013,0.076-0.031,0.152-0.063,0.227C220.461,96.603,220.523,96.554,220.582,96.501z"
   id="path62" />
<path
   fill="#FFF37A"
   stroke="#000000"
   d="M205.303,97.665l2.031,0.033c0.648,0.008,1.536-0.504,1.549-1.15l0.482-3.377  c-2.226-0.174-4.179-0.137-5.907,0.063l0.341,3.234C203.786,97.118,204.654,97.655,205.303,97.665z"
   id="path64" />
<path
   fill="#FFF37A"
   stroke="#000000"
   d="M200.883,97.976l1.672-0.443c0.534-0.141,1.143-0.764,1.002-1.299l-0.402-2.957  c-1.867,0.238-3.492,0.652-4.948,1.166l1.163,2.898C199.512,97.874,200.35,98.116,200.883,97.976z"
   id="path66" />
<path
   fill="#FFF37A"
   stroke="#000000"
   d="M196.578,99.571l1.583-0.697c0.505-0.223,1.009-0.934,0.786-1.439l-0.883-2.945  c-1.718,0.615-3.213,1.355-4.642,2.076l1.562,2.615C195.207,99.687,196.072,99.794,196.578,99.571z"
   id="path68" />
<path
   fill="#FFF37A"
   stroke="#000000"
   d="M210.612,97.958l1.905,0.371c0.606,0.117,1.525-0.215,1.645-0.824l1.077-3.309  c-1.323-0.389-2.755-0.697-4.347-0.885c-0.438-0.051-0.848-0.08-1.266-0.115l-0.232,3.385  C209.277,97.188,210.004,97.841,210.612,97.958z"
   id="path70" />
<path
   fill="#FFF37A"
   stroke="#000000"
   d="M214.713,97.437c-0.253,0.49,0.207,1.23,0.699,1.484l1.537,0.791  c0.491,0.254,1.361,0.197,1.613-0.293l1.771-2.594l0.072-0.145c0.003-0.004,0.007-0.006,0.01-0.01  c0.032-0.074,0.051-0.15,0.063-0.227c-1.385-0.801-2.907-1.51-4.639-2.068c0,0.002-0.003,0.004-0.004,0.006L214.713,97.437z"
   id="path72" />
<path
   fill="#FFF37A"
   stroke="#000000"
   d="M220.397,96.731l-0.064,0.094l-1.37,2.771c-0.304,0.461,0.075,1.246,0.537,1.551  l1.444,0.951c0.461,0.303,1.332,0.342,1.636-0.119l2.11-2.477c0.022-0.035,0.026-0.074,0.044-0.111  c-1.279-1.016-2.635-2.004-4.152-2.891c-0.059,0.053-0.121,0.102-0.167,0.17C220.406,96.69,220.408,96.712,220.397,96.731z"
   id="path74" />
<g
   id="g76">
	<path
   fill="#FFF37A"
   stroke="#000000"
   d="M202.657,124.632l1.989,0.406c0.635,0.131,1.393,0.822,1.265,1.457l-0.257,3.4   c-2.211-0.311-4.11-0.768-5.755-1.334l1.03-3.086C201.058,124.839,202.021,124.501,202.657,124.632z"
   id="path78" />
	<path
   fill="#FFF37A"
   stroke="#000000"
   d="M198.308,122.976l1.538,0.791c0.49,0.254,0.95,0.994,0.697,1.486l-1.031,2.799   c-1.771-0.637-3.269-1.391-4.58-2.205l1.762-2.578C196.947,122.776,197.817,122.722,198.308,122.976z"
   id="path80" />
	<path
   fill="#FFF37A"
   stroke="#000000"
   d="M194.549,120.587l1.396,1.021c0.444,0.326,0.784,1.131,0.458,1.576l-1.499,2.686   c-1.544-0.973-2.844-2.018-4.083-3.029l2.088-2.217C193.235,120.179,194.104,120.261,194.549,120.587z"
   id="path82" />
	<path
   fill="#FFF37A"
   stroke="#000000"
   d="M207.539,125.409l1.935-0.148c0.616-0.047,1.491,0.387,1.54,1.006l0.691,3.41   c-1.359,0.236-2.817,0.377-4.419,0.381c-0.442,0.002-0.853-0.016-1.271-0.029l0.157-3.389   C206.125,126.022,206.922,125.456,207.539,125.409z"
   id="path84" />
	<path
   fill="#FFF37A"
   stroke="#000000"
   d="M211.432,126.401c-0.2-0.514,0.334-1.203,0.849-1.404l1.61-0.629   c0.516-0.201,1.375-0.057,1.575,0.459l1.493,2.762l0.057,0.152c0.002,0.004,0.006,0.006,0.01,0.012   c0.023,0.076,0.034,0.154,0.039,0.23c-1.46,0.652-3.048,1.201-4.827,1.578c-0.001-0.002-0.003-0.004-0.004-0.006L211.432,126.401z"
   id="path86" />
	<path
   fill="#FFF37A"
   stroke="#000000"
   d="M217.352,127.661l-0.061-0.096l-1.238-2.832c-0.283-0.475,0.133-1.242,0.607-1.523   l1.488-0.885c0.475-0.279,1.346-0.277,1.629,0.197l1.991,2.574c0.021,0.035,0.023,0.074,0.04,0.111   c-1.327,0.953-2.727,1.879-4.283,2.693c-0.057-0.057-0.117-0.107-0.16-0.178C217.357,127.704,217.359,127.683,217.352,127.661z"
   id="path88" />
</g>
<path
   fill="#FFF37A"
   stroke="#000000"
   d="M220.415,96.671c-0.003,0.004-0.007,0.006-0.01,0.01l-0.072,0.145l0.064-0.094  C220.408,96.712,220.406,96.69,220.415,96.671z"
   id="path90" />
<radialGradient
   id="SVGID_2_"
   cx="153.9219"
   cy="61.29"
   r="18.6694"
   fx="154.1092"
   fy="61.2779"
   gradientTransform="matrix(1.1893 0 0 1.1893 25.5181 32.0856)"
   gradientUnits="userSpaceOnUse">
	<stop
   offset="0"
   style="stop-color:#B76020"
   id="stop93" />
	<stop
   offset="0.0575"
   style="stop-color:#A15720"
   id="stop95" />
	<stop
   offset="0.1555"
   style="stop-color:#814B20"
   id="stop97" />
	<stop
   offset="0.2576"
   style="stop-color:#68421F"
   id="stop99" />
	<stop
   offset="0.3642"
   style="stop-color:#573B1F"
   id="stop101" />
	<stop
   offset="0.4781"
   style="stop-color:#4C371F"
   id="stop103" />
	<stop
   offset="0.6121"
   style="stop-color:#49361F"
   id="stop105" />
	<stop
   offset="1"
   style="stop-color:#000000"
   id="stop107" />
</radialGradient>
<path
   fill="url(#SVGID_2_)"
   stroke="#000000"
   stroke-linecap="round"
   stroke-linejoin="round"
   d="M229.468,103.206  c-1.589-1.193-3.103-2.523-4.733-3.814c-0.018,0.037-0.021,0.076-0.044,0.111l-2.11,2.477c-0.304,0.461-1.175,0.422-1.636,0.119  l-1.444-0.951c-0.462-0.305-0.841-1.09-0.537-1.551l1.37-2.771l-1.771,2.594c-0.252,0.49-1.122,0.547-1.613,0.293l-1.537-0.791  c-0.492-0.254-0.952-0.994-0.699-1.484l1.123-3.055c0.001-0.002,0.004-0.004,0.004-0.006c-0.195-0.063-0.398-0.121-0.601-0.18  l-1.077,3.309c-0.119,0.609-1.038,0.941-1.645,0.824l-1.905-0.371c-0.608-0.117-1.335-0.77-1.218-1.377l0.232-3.385  c-0.087-0.008-0.176-0.018-0.262-0.025l-0.482,3.377c-0.013,0.646-0.9,1.158-1.549,1.15l-2.031-0.033  c-0.648-0.01-1.517-0.547-1.504-1.197l-0.341-3.234c-0.104,0.012-0.2,0.029-0.304,0.043l0.402,2.957  c0.141,0.535-0.468,1.158-1.002,1.299l-1.672,0.443c-0.533,0.141-1.371-0.102-1.514-0.635l-1.163-2.898  c-0.046,0.016-0.096,0.031-0.142,0.047l0.883,2.945c0.223,0.506-0.281,1.217-0.786,1.439l-1.583,0.697  c-0.506,0.223-1.371,0.115-1.594-0.391l-1.562-2.615c-1.207,0.609-2.368,1.203-3.571,1.693c-6.387,2.6-10.31,2.688-8.736,8.059  c1.774,6.059,5.125,12.186,9.682,16.789c-1.434-5.131-2.78-7.666-0.446-13.336c2.788-6.771,11.42-7.418,16.354-7.295  c-0.118,1.104-1.175,1.834-1.175,2.508c0,1.703,1.408,3.086,3.145,3.086s3.448-1.52,3.145-3.086  c-0.271-1.404-1.256-1.676-1.217-2.307c0.021-0.35,12.559,3.15,15.527,8.186c3.193,5.416-3.887,13.926-5.021,15.293  c5.671-3.553,10.202-8.533,11.924-12.445C236.004,106.962,232.345,105.37,229.468,103.206z"
   id="path109" />
<path
   opacity="0.5"
   d="M193.203,96.565c4.783-2.123,11.164-3.904,16.834-3.295c6.023,0.646,11.041,2.754,14.479,6.121  c0,0-9.076-4.705-15.1-5.088C202.637,93.876,193.203,96.565,193.203,96.565z"
   id="path111" />
<path
   opacity="0.5"
   d="M190.52,122.841c5.023,3.314,15.494,13.225,30.988,2.367c0,0-8.224,4.102-15.494,3.418  C197.435,127.821,190.52,122.841,190.52,122.841z"
   id="path113" />
<g
   id="g115">
	
		<radialGradient
   id="SVGID_3_"
   cx="214.3389"
   cy="118.6748"
   r="53.7399"
   fx="213.9496"
   fy="114.0044"
   gradientUnits="userSpaceOnUse">
		<stop
   offset="0"
   style="stop-color:#FEF7B9"
   id="stop118" />
		<stop
   offset="0.0284"
   style="stop-color:#FDF0B8"
   id="stop120" />
		<stop
   offset="0.1676"
   style="stop-color:#F7D2B5"
   id="stop122" />
		<stop
   offset="0.3142"
   style="stop-color:#F3BAB3"
   id="stop124" />
		<stop
   offset="0.4698"
   style="stop-color:#F0A9B1"
   id="stop126" />
		<stop
   offset="0.6404"
   style="stop-color:#EF9FB0"
   id="stop128" />
		<stop
   offset="0.8545"
   style="stop-color:#EE9CB0"
   id="stop130" />
		<stop
   offset="1"
   style="stop-color:#E68287"
   id="stop132" />
	</radialGradient>
	<path
   fill="url(#SVGID_3_)"
   stroke="#FF7BAC"
   stroke-width="0.75"
   stroke-linecap="round"
   stroke-linejoin="round"
   d="   M195.111,120.624c-0.76,2.916,11.545,3.832,16.771,9.486c5.396,5.84,8.414,15.074,15.854,19.064   c7.439,3.992,16.476,10.289,22.381,5.457c1.383-1.133,4.109-0.564,3.963-5.523c-0.152-5.162-11.215-13.422-13.66-18.086   C228.236,107.784,199.745,102.856,195.111,120.624z"
   id="path134" />
	<path
   fill="none"
   stroke="#FF7BAC"
   stroke-linecap="round"
   stroke-linejoin="round"
   d="M250.117,154.632   c0.697-0.984,1.271-1.93,0.578-3.289c-1.307-2.57-8.357-9.334-13.773-12.875c-5.416-3.539-8.128-9.637-14.143-18.025   c-4.896-6.826-10.717-8.457-17.527-9.967"
   id="path136" />
	<g
   id="g138">
		<circle
   fill="#FF7BAC"
   cx="212.693"
   cy="116.911"
   r="0.773"
   id="circle140" />
		<circle
   fill="#FF7BAC"
   cx="206.449"
   cy="116.577"
   r="0.773"
   id="circle142" />
		<circle
   fill="#FF7BAC"
   cx="215.239"
   cy="121.214"
   r="0.774"
   id="circle144" />
		<circle
   fill="#FF7BAC"
   cx="225.012"
   cy="117.964"
   r="0.832"
   id="circle146" />
		<circle
   fill="#FF7BAC"
   cx="221.646"
   cy="123.741"
   r="0.409"
   id="circle148" />
		<circle
   fill="#FF7BAC"
   cx="218.062"
   cy="118.972"
   r="0.247"
   id="circle150" />
		<circle
   fill="#FF7BAC"
   cx="211.919"
   cy="124.858"
   r="0.248"
   id="circle152" />
		<circle
   fill="#FF7BAC"
   cx="225.845"
   cy="121.739"
   r="0.247"
   id="circle154" />
		<circle
   fill="#FF7BAC"
   cx="228.962"
   cy="119.782"
   r="0.248"
   id="circle156" />
		<circle
   fill="#FF7BAC"
   cx="220.479"
   cy="113.716"
   r="0.247"
   id="circle158" />
		<circle
   fill="#FF7BAC"
   cx="210.977"
   cy="113.716"
   r="0.41"
   id="circle160" />
		<circle
   fill="#FF7BAC"
   cx="216.013"
   cy="112.897"
   r="0.409"
   id="circle162" />
		<circle
   fill="#FF7BAC"
   cx="221.236"
   cy="115.802"
   r="0.41"
   id="circle164" />
		<circle
   fill="#FF7BAC"
   cx="210.567"
   cy="120.438"
   r="0.409"
   id="circle166" />
		<circle
   fill="#FF7BAC"
   cx="228.131"
   cy="124.026"
   r="0.832"
   id="circle168" />
	</g>
</g>
<g
   id="g170">
	<circle
   fill="#FFFFFF"
   stroke="#000000"
   cx="186.844"
   cy="69.067"
   r="14.002"
   id="circle172" />
	<radialGradient
   id="SVGID_4_"
   cx="186.8574"
   cy="69.0938"
   r="12.1099"
   gradientUnits="userSpaceOnUse">
		<stop
   offset="0"
   style="stop-color:#FFFFFF"
   id="stop175" />
		<stop
   offset="0.3121"
   style="stop-color:#FDFDFD"
   id="stop177" />
		<stop
   offset="0.4725"
   style="stop-color:#F5F5F5"
   id="stop179" />
		<stop
   offset="0.5984"
   style="stop-color:#E8E8E8"
   id="stop181" />
		<stop
   offset="0.7063"
   style="stop-color:#D5D5D5"
   id="stop183" />
		<stop
   offset="0.8028"
   style="stop-color:#BCBCBC"
   id="stop185" />
		<stop
   offset="0.8897"
   style="stop-color:#9E9E9E"
   id="stop187" />
		<stop
   offset="0.903"
   style="stop-color:#999999"
   id="stop189" />
	</radialGradient>
	<circle
   fill="url(#SVGID_4_)"
   cx="186.857"
   cy="69.093"
   r="12.11"
   id="circle191" />
	<radialGradient
   id="SVGID_5_"
   cx="192.9961"
   cy="60.229"
   r="15.9362"
   gradientUnits="userSpaceOnUse">
		<stop
   offset="0"
   style="stop-color:#FFFFFF"
   id="stop194" />
		<stop
   offset="0.2995"
   style="stop-color:#FDFDFD"
   id="stop196" />
		<stop
   offset="0.4535"
   style="stop-color:#F5F5F5"
   id="stop198" />
		<stop
   offset="0.5743"
   style="stop-color:#E8E8E8"
   id="stop200" />
		<stop
   offset="0.6779"
   style="stop-color:#D5D5D5"
   id="stop202" />
		<stop
   offset="0.7704"
   style="stop-color:#BCBCBC"
   id="stop204" />
		<stop
   offset="0.8539"
   style="stop-color:#9E9E9E"
   id="stop206" />
		<stop
   offset="0.8667"
   style="stop-color:#999999"
   id="stop208" />
	</radialGradient>
	<path
   opacity="0.71"
   fill="url(#SVGID_5_)"
   d="M177.24,62.032c2.149-2.781,5.697-4.749,9.617-4.749   c3.293,0,6.193,1.345,8.061,3.073C184.278,54.751,178.27,62.032,177.24,62.032z"
   id="path210" />
	<circle
   opacity="0.7"
   fill="#FFFFFF"
   cx="186.357"
   cy="69.593"
   r="9.749"
   id="circle212" />
	<radialGradient
   id="SVGID_6_"
   cx="186.8574"
   cy="69.0933"
   r="9.748"
   gradientUnits="userSpaceOnUse">
		<stop
   offset="0.8485"
   style="stop-color:#B3B3B3"
   id="stop215" />
		<stop
   offset="0.8645"
   style="stop-color:#AFB2B1"
   id="stop217" />
		<stop
   offset="0.8799"
   style="stop-color:#A4B0A9"
   id="stop219" />
		<stop
   offset="0.8951"
   style="stop-color:#90AC9D"
   id="stop221" />
		<stop
   offset="0.9102"
   style="stop-color:#75A78B"
   id="stop223" />
		<stop
   offset="0.9252"
   style="stop-color:#51A075"
   id="stop225" />
		<stop
   offset="0.9399"
   style="stop-color:#27985A"
   id="stop227" />
		<stop
   offset="0.9515"
   style="stop-color:#009141"
   id="stop229" />
	</radialGradient>
	<circle
   opacity="0.7"
   fill="url(#SVGID_6_)"
   cx="186.857"
   cy="69.093"
   r="9.749"
   id="circle231" />
	<circle
   cx="186.857"
   cy="69.093"
   r="8.485"
   id="circle233" />
	<g
   id="g235">
		<polygon
   fill="#4D4D4D"
   points="177.787,69.067 186.857,68.602 195.897,69.093 186.857,69.585   "
   id="polygon237" />
		<polygon
   fill="#4D4D4D"
   points="178.988,73.599 186.609,68.661 194.685,64.566 187.102,69.513   "
   id="polygon239" />
		<polygon
   fill="#4D4D4D"
   points="182.293,76.923 186.424,68.835 191.37,61.251 187.276,69.328   "
   id="polygon241" />
		<polygon
   fill="#4D4D4D"
   points="186.817,78.149 186.352,69.08 186.843,60.039 187.336,69.08   "
   id="polygon243" />
		<polygon
   fill="#4D4D4D"
   points="191.349,76.949 186.41,69.327 182.315,61.252 187.263,68.835   "
   id="polygon245" />
		<polygon
   fill="#4D4D4D"
   points="194.673,73.644 186.586,69.512 179.002,64.566 187.078,68.66   "
   id="polygon247" />
	</g>
	<g
   id="g249">
		<polygon
   fill="#333333"
   points="177.787,69.067 186.857,68.602 195.897,69.093 186.857,69.585   "
   id="polygon251" />
		<polygon
   fill="#333333"
   points="178.988,73.599 186.609,68.661 194.685,64.566 187.102,69.513   "
   id="polygon253" />
		<polygon
   fill="#333333"
   points="182.293,76.923 186.424,68.835 191.37,61.251 187.276,69.328   "
   id="polygon255" />
		<polygon
   fill="#333333"
   points="186.817,78.149 186.352,69.08 186.843,60.039 187.336,69.08   "
   id="polygon257" />
		<polygon
   fill="#333333"
   points="191.349,76.949 186.41,69.327 182.315,61.252 187.263,68.835   "
   id="polygon259" />
		<polygon
   fill="#333333"
   points="194.673,73.644 186.586,69.512 179.002,64.566 187.078,68.66   "
   id="polygon261" />
	</g>
	<g
   id="g263">
		<polygon
   fill="#1A1A1A"
   points="182.199,73.712 186.6,68.836 191.475,64.463 187.103,69.339   "
   id="polygon265" />
		<polygon
   fill="#1A1A1A"
   points="185.13,75.417 186.503,68.993 188.539,62.768 187.19,69.177   "
   id="polygon267" />
		<polygon
   fill="#1A1A1A"
   points="188.521,75.426 186.498,69.177 185.148,62.768 187.186,68.993   "
   id="polygon269" />
		<polygon
   fill="#1A1A1A"
   points="191.462,73.739 186.586,69.339 182.213,64.463 187.088,68.835   "
   id="polygon271" />
		<polygon
   fill="#1A1A1A"
   points="193.166,70.808 186.742,69.435 180.518,67.399 186.926,68.748   "
   id="polygon273" />
		<polygon
   fill="#1A1A1A"
   points="193.176,67.417 186.926,69.44 180.518,70.79 186.742,68.753   "
   id="polygon275" />
	</g>
	<circle
   opacity="0.8"
   fill="#FFFFFF"
   cx="183.922"
   cy="64.994"
   r="2.158"
   id="circle277" />
	<circle
   opacity="0.7"
   fill="#FFFFFF"
   cx="188.336"
   cy="64.459"
   r="1.137"
   id="circle279" />
	<path
   d="M171.039,68.967c0-8.618,6.986-15.604,15.605-15.604c1.734,0,3.396,0.295,4.955,0.817   c-2.066-1.105-4.426-1.735-6.934-1.735c-8.135,0-14.729,6.595-14.729,14.73c0,3.022,0.913,5.829,2.474,8.167   C171.537,73.393,171.039,71.24,171.039,68.967z"
   id="path281" />
	<path
   fill="none"
   stroke="#000000"
   stroke-width="3"
   stroke-linecap="round"
   d="M171.617,62.721c0,0-4.809,0.475-6.448-2.04"
   id="path283" />
	<path
   fill="none"
   stroke="#000000"
   stroke-width="3"
   stroke-linecap="round"
   d="M172.924,58.845c0,0-3.592-1.523-5.23-4.037"
   id="path285" />
	
		<circle
   opacity="0.7"
   fill="#003707"
   stroke="#009245"
   stroke-width="0.25"
   stroke-linecap="round"
   stroke-linejoin="round"
   cx="186.844"
   cy="69.068"
   r="3.228"
   id="circle287" />
</g>
<g
   id="g289">
	<polygon
   fill="#EB7E24"
   points="184.268,78.544 172.333,76.369 177.787,89.667 198.967,84.312  "
   id="polygon291" />
	<g
   id="g293">
		<path
   fill="#EB7E24"
   d="M173.605,76.627c1.188-0.17,2.4-0.259,3.635-0.259c6.33,0,12.117,2.318,16.563,6.152"
   id="path295" />
		<path
   d="M193.476,82.899c-4.508-3.889-10.274-6.031-16.235-6.031c-1.191,0-2.391,0.085-3.564,0.254c0,0,4.695-1.932,10.574-0.174    C190.577,78.841,193.476,82.899,193.476,82.899L193.476,82.899z"
   id="path297" />
		<path
   opacity="0.5"
   d="M193.025,82.521c-4.508-3.889-12.508-4.804-15.238-4.804c-0.795,0-3.244-0.366-4.417-0.198    c0,0,1.377-1.69,9.4-0.005C190.049,79.042,193.025,82.521,193.025,82.521L193.025,82.521z"
   id="path299" />
	</g>
</g>
<radialGradient
   id="SVGID_7_"
   cx="181.4922"
   cy="85.5332"
   r="27.2424"
   gradientTransform="matrix(0.9243 -0.3818 0.3818 0.9243 -18.9075 75.7668)"
   gradientUnits="userSpaceOnUse">
	<stop
   offset="0"
   style="stop-color:#EB2C3B"
   id="stop302" />
	<stop
   offset="0.0972"
   style="stop-color:#EB303F;stop-opacity:0.7085"
   id="stop304" />
	<stop
   offset="0.3333"
   style="stop-color:#EC3543;stop-opacity:0"
   id="stop306" />
</radialGradient>
<circle
   opacity="0.5"
   fill="url(#SVGID_7_)"
   cx="182.015"
   cy="87.396"
   r="13.679"
   id="circle308" />
<path
   opacity="0.3"
   d="M152.571,82.622c11.101,40.205,6.724,40.471,39.522,58.164c0,0-18.424,0.959-32.802-20.494  C152.606,110.317,152.571,82.622,152.571,82.622z"
   id="path310" />
<g
   id="g312">
	<path
   fill="none"
   d="M57.667,137.821c0.001,0.063,0.005,0.123,0.005,0.188c0-0.063,0.004-0.125,0.005-0.188   C57.674,137.821,57.67,137.821,57.667,137.821z"
   id="path314" />
	<path
   fill="#EB7E24"
   stroke="#000000"
   stroke-width="4"
   stroke-linecap="round"
   stroke-linejoin="round"
   d="M157.445,133.175   c7.059-23.646-3.828-67.965-26.432-70.681c-15.289-1.837-17.305,6.192-26.424,6.563c-6.051,0.247-8.467-6.643-23.14-6.563   c-14.056,0.076-16.035,8.34-21.726,8.558c-5.013,0.192-9.267-11.398-21.921-6.483L29.211,93.19   c9.085-3.732,15.472,4.818,16.236,8.879c0.811,4.311-3.076,24.154-2.747,31.426c3.714,4.154,6.858,0.566,14.978,2.129   c0.003,0,3.517-0.131,7.62,0.484c0.047-0.002,2.766-0.877,6.535-0.703c1.293-4.629,0.114-24.297,7.19-24.459   c6.976-0.16,1.561,21.039,3.308,24.316c0.386-2.877,6.881,1.199,6.856,1.504c0.018,0.004,7.537,1.236,7.535,1.32   c0.005,0,0.01-0.4,0.015-0.4c0.077-3.473,7.402-3.383,7.485,0.08c0.117-0.008,6.77-1.012,6.851-1.123   c1.829-2.525,1.201-24.219,9.092-23.725c9.176,0.572,1.669,18.961,2.964,24.104c0.547-2.416,6.619,1.736,6.59,2.059   c0.021,0.004,7.546,0.859,7.549,0.859c2.168-1.861,7.822,0.346,7.905,0.297c1.694-0.975,4.632-3.152,7.682-1.242   C152.952,138.972,156.928,132.708,157.445,133.175z"
   id="path316" />
	<g
   id="g318">
		<path
   fill="#603813"
   stroke="#000000"
   stroke-width="2"
   stroke-linecap="round"
   stroke-linejoin="round"
   d="M156.412,138.563    c0.845-1.631,1.553-3.441,2.135-5.389c-0.518-0.467-1.105-0.734-1.729-0.734c-2.071,0-3.75,2.91-3.75,6.5    c0,0.439,0.026,0.869,0.074,1.285C154.872,139.794,156.063,139.239,156.412,138.563z"
   id="path320" />
		<path
   fill="#603813"
   stroke="#000000"
   stroke-width="2"
   stroke-linecap="round"
   stroke-linejoin="round"
   d="M141.016,134.827    c-2.055,0-3.721,2.865-3.748,6.414c2.509,0.115,5.08,0.119,7.496,0.012C144.74,137.698,143.072,134.827,141.016,134.827z"
   id="path322" />
		<path
   fill="#603813"
   stroke="#000000"
   stroke-width="2"
   stroke-linecap="round"
   stroke-linejoin="round"
   d="M149.123,134.438    c-2.071,0-3.75,2.91-3.75,6.5c0,0.096,0.006,0.188,0.008,0.281c2.878-0.152,5.498-0.461,7.474-0.924    C152.668,137.009,151.069,134.438,149.123,134.438z"
   id="path324" />
		<path
   fill="#603813"
   stroke="#000000"
   stroke-width="2"
   stroke-linecap="round"
   stroke-linejoin="round"
   d="M45.797,129.759    c-1.287,0-2.422,1.125-3.097,2.836c0.054,1.182,0.214,2.064,0.528,2.518c0.635,0.916,3.069,1.596,6.279,2.053    c0.024-0.297,0.041-0.598,0.041-0.906C49.547,132.669,47.868,129.759,45.797,129.759z"
   id="path326" />
		<path
   fill="#603813"
   stroke="#000000"
   stroke-width="2"
   stroke-linecap="round"
   stroke-linejoin="round"
   d="M53.922,131.509    c-1.924,0-3.507,2.512-3.723,5.746c2.27,0.293,4.864,0.48,7.467,0.566C57.609,134.319,55.957,131.509,53.922,131.509z"
   id="path328" />
		<path
   fill="#603813"
   stroke="#000000"
   stroke-width="2"
   stroke-linecap="round"
   stroke-linejoin="round"
   d="M61.422,131.509    c-2.035,0-3.687,2.811-3.745,6.313c2.604,0.086,5.208,0.07,7.488-0.041C65.095,134.298,63.449,131.509,61.422,131.509z"
   id="path330" />
		<path
   fill="#603813"
   stroke="#000000"
   stroke-width="2"
   stroke-linecap="round"
   stroke-linejoin="round"
   d="M69.047,131.108    c-2.071,0-3.75,2.91-3.75,6.5c0,0.055,0.004,0.109,0.005,0.164c3.582-0.184,6.336-0.609,6.959-1.264    c0.149-0.156,0.27-0.438,0.372-0.803C72.164,133.044,70.736,131.108,69.047,131.108z"
   id="path332" />
		<path
   fill="#603813"
   stroke="#000000"
   stroke-width="2"
   stroke-linecap="round"
   stroke-linejoin="round"
   d="M85.479,131.04    c-1.778,0-3.263,2.146-3.649,5.023c0.017,0.031,0.03,0.074,0.049,0.104c0.6,0.916,3.505,1.734,7.307,2.301    c0.025-0.303,0.042-0.611,0.042-0.928C89.229,133.95,87.55,131.04,85.479,131.04z"
   id="path334" />
		<path
   fill="#603813"
   stroke="#000000"
   stroke-width="2"
   stroke-linecap="round"
   stroke-linejoin="round"
   d="M92.979,132.438    c-1.981,0-3.599,2.664-3.736,6.037c2.276,0.338,4.869,0.586,7.479,0.713c0.002-0.084,0.007-0.166,0.007-0.25    C96.729,135.349,95.05,132.438,92.979,132.438z"
   id="path336" />
		<path
   fill="#603813"
   stroke="#000000"
   stroke-width="2"
   stroke-linecap="round"
   stroke-linejoin="round"
   d="M100.479,132.938    c-2.022,0-3.666,2.777-3.743,6.25c2.576,0.123,5.166,0.127,7.485-0.02C104.138,135.704,102.497,132.938,100.479,132.938z"
   id="path338" />
		<path
   fill="#603813"
   stroke="#000000"
   stroke-width="2"
   stroke-linecap="round"
   stroke-linejoin="round"
   d="M108.302,132.106    c-2.071,0-3.75,2.91-3.75,6.5c0,0.182,0.007,0.359,0.016,0.537c3.451-0.244,6.247-0.834,7.404-1.877    C111.615,134.319,110.108,132.106,108.302,132.106z"
   id="path340" />
		<path
   fill="#603813"
   stroke="#000000"
   stroke-width="2"
   stroke-linecap="round"
   stroke-linejoin="round"
   d="M126.017,132.995    c-1.588,0-2.942,1.713-3.489,4.129c0.1,0.395,0.249,0.721,0.472,0.945c1.075,1.074,3.562,1.875,6.719,2.414    c0.028-0.324,0.048-0.652,0.048-0.988C129.767,135.905,128.088,132.995,126.017,132.995z"
   id="path342" />
		<path
   fill="#603813"
   stroke="#000000"
   stroke-width="2"
   stroke-linecap="round"
   stroke-linejoin="round"
   d="M133.517,134.438    c-1.985,0-3.605,2.674-3.737,6.057c2.244,0.379,4.825,0.625,7.479,0.746c0.002-0.102,0.008-0.201,0.008-0.303    C137.266,137.349,135.588,134.438,133.517,134.438z"
   id="path344" />
	</g>
</g>
<path
   opacity="0.3"
   d="M32.265,83.019c-6.926-0.678-9.362,4.619-8.811,11.471c0.551,6.854,1.935,15.174-2.009,20.842  c0,0,5.572-9.338,5.41-18.859c-0.162-9.52,2.563-6.049,3.261-6.293C30.813,89.937,32.265,83.019,32.265,83.019z"
   id="path346" />
<g
   id="g348">
	<path
   fill="#F7941E"
   stroke="#000000"
   d="M199.002,36.455c-1.664-7.113-3.301-9.113-8.482-10.113c0,0,10.813-3.128,14.149,10.103   L199.002,36.455z"
   id="path350" />
	<path
   opacity="0.3"
   stroke="#000000"
   d="M199.002,36.091c-0.703-3.003-1.801-7.584-3.987-8.006c0,0,3.323,0.924,5.313,8.237   L199.002,36.091z"
   id="path352" />
</g>
<g
   id="g354">
	<path
   fill="#F7941E"
   stroke="#000000"
   d="M194.527,36.673c-0.854-3.651-1.693-4.678-4.354-5.191c0,0,5.551-1.605,7.263,5.185   L194.527,36.673z"
   id="path356" />
	<path
   opacity="0.3"
   stroke="#000000"
   d="M194.527,36.486c-0.359-1.542-0.924-3.893-2.046-4.109c0,0,1.706,0.475,2.727,4.228   L194.527,36.486z"
   id="path358" />
</g>
<path
   fill="#F7941E"
   stroke="#000000"
   d="M211.389,37.767c2.949-4.759,10.479-12.635,19.381-6.53c0,0-7.99-2.125-15.53,7.993  L211.389,37.767z"
   id="path360" />
<path
   opacity="0.3"
   stroke="#000000"
   stroke-linejoin="round"
   d="M211.389,37.762c1.164-1.879,7.977-10.189,13.208-8.569  c0,0-6.199-0.094-12.145,8.973L211.389,37.762z"
   id="path362" />
<g
   id="g364">
	<circle
   fill="#F190AC"
   stroke="#000000"
   cx="229.587"
   cy="27.786"
   r="2.667"
   id="circle366" />
	<circle
   fill="#F190AC"
   stroke="#000000"
   cx="228.297"
   cy="32.362"
   r="2.667"
   id="circle368" />
	<circle
   fill="#F190AC"
   stroke="#000000"
   cx="232.065"
   cy="34.976"
   r="2.667"
   id="circle370" />
	<circle
   fill="#F190AC"
   stroke="#000000"
   cx="236.258"
   cy="32.372"
   r="2.667"
   id="circle372" />
	<circle
   fill="#F190AC"
   stroke="#000000"
   cx="234.74"
   cy="27.498"
   r="2.667"
   id="circle374" />
	<circle
   fill="#FFF200"
   stroke="#000000"
   cx="232.171"
   cy="30.752"
   r="2.667"
   id="circle376" />
</g>
<path
   opacity="0.3"
   d="M78.492,109.208c-3.934-1.188-7.162,3.326-8.07,6.123c-2,6.164-2.2,15.939-2.338,16.002  c-0.138,0.061,2.164-1.547,2.959,0.773c0.795,2.318,1.078-13.809,2.507-16.014C76.088,112.175,78.492,109.208,78.492,109.208z"
   id="path378" />
<path
   opacity="0.3"
   d="M120.755,110.95c-4.833-1.744-8.889,3.303-9.917,6.059c-2.083,5.584-2.833,15.709-2.972,15.77  s2.164-1.547,2.959,0.773s1.078-13.809,2.507-16.014C115.871,113.622,120.755,110.95,120.755,110.95z"
   id="path380" />
<path
   opacity="0.5"
   d="M77.77,109.255c4.079-0.494,7.305,2.887,7.718,5.799c0.911,6.418-0.574,16.08-0.448,16.166  c0.125,0.082-1.865-1.896-3.048,0.252s1.313-13.787,0.284-16.207C80.449,110.972,77.77,109.255,77.77,109.255z"
   id="path382" />
<path
   opacity="0.5"
   d="M120.315,111.163c4.103-0.227,7.101,3.357,7.323,6.291c0.49,6.463-1.622,16.008-1.502,16.102  c0.12,0.092-1.738-2.014-3.058,0.053c-1.32,2.066,2.209-13.672,1.34-16.152C122.876,113.052,120.315,111.163,120.315,111.163z"
   id="path384" />
<path
   d="M26.07,100.251c0,0-1.132,2.699-3.75,3.475c0,0,1.461-0.926,2.063-1.449C25.102,101.651,25.867,100.532,26.07,100.251z"
   id="path386" />
<path
   d="M25.329,102.522c0,0-1.132,2.699-3.75,3.475c0,0,1.461-0.928,2.063-1.449C24.36,103.923,25.125,102.804,25.329,102.522z"
   id="path388" />
<path
   d="M25.195,105.997c0,0-1.656,3.258-4.273,4.033c0,0,1.461-0.926,2.063-1.449C23.703,107.956,24.992,106.278,25.195,105.997z"
   id="path390" />
<path
   d="M27.288,89.157c-0.137-0.994-0.3-1.359-0.931-1.707c-0.968-0.535-2.903-0.146-2.903-0.146s2.031-0.006,2.679,0.314  C27.234,88.163,27.288,89.157,27.288,89.157z"
   id="path392" />
<path
   d="M27.112,90.175c-0.137-0.996-0.3-1.359-0.931-1.709c-0.968-0.533-2.903-0.145-2.903-0.145s2.031-0.008,2.679,0.313  C27.059,89.179,27.112,90.175,27.112,90.175z"
   id="path394" />
<path
   d="M27.987,92.171c-0.137-0.996-0.3-1.361-0.931-1.709c-0.968-0.535-2.903-0.146-2.903-0.146s2.031-0.006,2.679,0.314  C27.934,91.175,27.987,92.171,27.987,92.171z"
   id="path396" />
<path
   d="M27.484,89.192c0.708-0.713,0.899-1.063,0.792-1.775c-0.163-1.094-1.647-2.396-1.647-2.396s1.239,1.611,1.377,2.32  C28.243,88.546,27.484,89.192,27.484,89.192z"
   id="path398" />
<path
   opacity="0.3"
   d="M60.151,74.282c2.343-0.107,6.303-1.16,9.124-3.875c4.076-3.923,5.576-3.227,7.897-3.522  c-4.636,3.903-3.523,3.422-6.982,6.029C65.828,76.201,60.151,74.282,60.151,74.282z"
   id="path400" />
<path
   opacity="0.3"
   d="M106.993,72.401c2.343-0.107,6.694-1.18,9.424-3.474s5.275-2.694,7.597-2.99  c-4.636,3.903-3.523,2.489-6.982,5.096C112.67,74.321,106.993,72.401,106.993,72.401z"
   id="path402" />
<path
   opacity="0.3"
   d="M31.279,87.167c2.98,0.326,15.11,1.572,13.01,11.979c0,0-7.458-8.971-15.078-5.955  C25.216,94.772,31.279,87.167,31.279,87.167z"
   id="path404" />
<path
   d="M77.77,112.142c-0.884-1.346-0.384-1.807-1.24-2.674c-1.329-1.348-3.114-1.684-3.897-1.752c0,0,2.711,0.629,3.781,1.857  C77.054,110.308,77.77,112.142,77.77,112.142z"
   id="path406" />
<path
   d="M78.56,109.884c0.103,0.674,0.338-1.541,0.237-2.168c-0.076-0.469-0.742-2.082-1.458-2.623  c-0.306-0.232,0.946,1.426,1.125,2.447C78.52,107.862,78.401,108.849,78.56,109.884z"
   id="path408" />
<path
   d="M77.348,111.981c0.144,0.666,0.243-1.561,0.104-2.178c-0.104-0.465-0.868-2.035-1.616-2.531  c-0.32-0.213,1.031,1.365,1.272,2.375C77.185,109.966,77.126,110.956,77.348,111.981z"
   id="path410" />
<path
   d="M80.641,110.71c-0.287,0.584,0.544-1.297,0.813-1.531c0.645-0.563,0.754-0.449,1.52-0.416c0,0-0.789,0.262-1.196,0.635  C81.056,110.06,80.902,110.177,80.641,110.71z"
   id="path412" />
<path
   d="M118.315,113.981c0.475-1.537,1.149-1.445,1.273-2.658c0.193-1.883-0.683-3.473-1.13-4.121c0,0,1.241,2.492,0.975,4.098  C119.275,112.263,118.315,113.981,118.315,113.981z"
   id="path414" />
<path
   d="M118.704,114.052c0.103,0.672,0.338-1.543,0.237-2.168c-0.076-0.469-0.742-2.084-1.458-2.625  c-0.306-0.23,0.946,1.428,1.125,2.447C118.665,112.028,118.546,113.015,118.704,114.052z"
   id="path416" />
<path
   d="M120.806,113.493c-0.21,0.648,0.994-1.227,1.185-1.83c0.143-0.453,0.271-2.195-0.125-3c-0.17-0.344,0.205,1.699-0.093,2.691  C121.678,111.669,121.129,112.497,120.806,113.493z"
   id="path418" />
<path
   d="M122.316,112.925c-0.287,0.584,0.544-1.297,0.813-1.531c0.645-0.563,0.754-0.449,1.52-0.416c0,0-0.789,0.262-1.196,0.635  C122.731,112.274,122.577,112.392,122.316,112.925z"
   id="path420" />
<g
   id="g422">
	<g
   id="g424">
		<circle
   fill="#FFFFFF"
   stroke="#000000"
   cx="235.599"
   cy="78.393"
   r="14.002"
   id="circle426" />
		
			<radialGradient
   id="SVGID_8_"
   cx="-534.917"
   cy="78.4199"
   r="12.1099"
   gradientTransform="matrix(-1 0 0 1 -299.3311 0)"
   gradientUnits="userSpaceOnUse">
			<stop
   offset="0"
   style="stop-color:#FFFFFF"
   id="stop429" />
			<stop
   offset="0.3121"
   style="stop-color:#FDFDFD"
   id="stop431" />
			<stop
   offset="0.4725"
   style="stop-color:#F5F5F5"
   id="stop433" />
			<stop
   offset="0.5984"
   style="stop-color:#E8E8E8"
   id="stop435" />
			<stop
   offset="0.7063"
   style="stop-color:#D5D5D5"
   id="stop437" />
			<stop
   offset="0.8028"
   style="stop-color:#BCBCBC"
   id="stop439" />
			<stop
   offset="0.8897"
   style="stop-color:#9E9E9E"
   id="stop441" />
			<stop
   offset="0.903"
   style="stop-color:#999999"
   id="stop443" />
		</radialGradient>
		<circle
   fill="url(#SVGID_8_)"
   cx="235.586"
   cy="78.419"
   r="12.109"
   id="circle445" />
		
			<radialGradient
   id="SVGID_9_"
   cx="-528.7769"
   cy="69.4546"
   r="15.934"
   gradientTransform="matrix(-1 0 0 1 -299.3311 0)"
   gradientUnits="userSpaceOnUse">
			<stop
   offset="0"
   style="stop-color:#FFFFFF"
   id="stop448" />
			<stop
   offset="0.2995"
   style="stop-color:#FDFDFD"
   id="stop450" />
			<stop
   offset="0.4535"
   style="stop-color:#F5F5F5"
   id="stop452" />
			<stop
   offset="0.5743"
   style="stop-color:#E8E8E8"
   id="stop454" />
			<stop
   offset="0.6779"
   style="stop-color:#D5D5D5"
   id="stop456" />
			<stop
   offset="0.7704"
   style="stop-color:#BCBCBC"
   id="stop458" />
			<stop
   offset="0.8539"
   style="stop-color:#9E9E9E"
   id="stop460" />
			<stop
   offset="0.8667"
   style="stop-color:#999999"
   id="stop462" />
		</radialGradient>
		<path
   opacity="0.71"
   fill="url(#SVGID_9_)"
   d="M245.202,71.257c-2.149-2.781-5.697-4.749-9.616-4.749    c-3.294,0-6.193,1.345-8.062,3.073C238.164,63.977,244.174,71.257,245.202,71.257z"
   id="path464" />
		<circle
   opacity="0.7"
   fill="#FFFFFF"
   cx="236.086"
   cy="78.919"
   r="9.748"
   id="circle466" />
		
			<radialGradient
   id="SVGID_10_"
   cx="-534.917"
   cy="78.4189"
   r="9.748"
   gradientTransform="matrix(-1 0 0 1 -299.3311 0)"
   gradientUnits="userSpaceOnUse">
			<stop
   offset="0.8485"
   style="stop-color:#B3B3B3"
   id="stop469" />
			<stop
   offset="0.8645"
   style="stop-color:#AFB2B1"
   id="stop471" />
			<stop
   offset="0.8799"
   style="stop-color:#A4B0A9"
   id="stop473" />
			<stop
   offset="0.8951"
   style="stop-color:#90AC9D"
   id="stop475" />
			<stop
   offset="0.9102"
   style="stop-color:#75A78B"
   id="stop477" />
			<stop
   offset="0.9252"
   style="stop-color:#51A075"
   id="stop479" />
			<stop
   offset="0.9399"
   style="stop-color:#27985A"
   id="stop481" />
			<stop
   offset="0.9515"
   style="stop-color:#009141"
   id="stop483" />
		</radialGradient>
		<circle
   opacity="0.7"
   fill="url(#SVGID_10_)"
   cx="235.586"
   cy="78.419"
   r="9.748"
   id="circle485" />
		<circle
   cx="235.585"
   cy="78.419"
   r="8.485"
   id="circle487" />
		<g
   id="g489">
			<polygon
   fill="#4D4D4D"
   points="244.655,78.393 235.586,77.927 226.545,78.419 235.586,78.911    "
   id="polygon491" />
			<polygon
   fill="#4D4D4D"
   points="243.455,82.925 235.834,77.986 227.758,73.892 235.342,78.838    "
   id="polygon493" />
			<polygon
   fill="#4D4D4D"
   points="240.15,86.249 236.019,78.161 231.072,70.577 235.166,78.653    "
   id="polygon495" />
			<polygon
   fill="#4D4D4D"
   points="235.625,87.476 236.092,78.405 235.6,69.364 235.107,78.405    "
   id="polygon497" />
			<polygon
   fill="#4D4D4D"
   points="231.094,86.274 236.032,78.653 240.127,70.578 235.18,78.161    "
   id="polygon499" />
			<polygon
   fill="#4D4D4D"
   points="227.77,82.97 235.857,78.838 243.441,73.892 235.365,77.986    "
   id="polygon501" />
		</g>
		<g
   id="g503">
			<polygon
   fill="#333333"
   points="244.655,78.393 235.586,77.927 226.545,78.419 235.586,78.911    "
   id="polygon505" />
			<polygon
   fill="#333333"
   points="243.455,82.925 235.834,77.986 227.758,73.892 235.342,78.838    "
   id="polygon507" />
			<polygon
   fill="#333333"
   points="240.15,86.249 236.019,78.161 231.072,70.577 235.166,78.653    "
   id="polygon509" />
			<polygon
   fill="#333333"
   points="235.625,87.476 236.092,78.405 235.6,69.364 235.107,78.405    "
   id="polygon511" />
			<polygon
   fill="#333333"
   points="231.094,86.274 236.032,78.653 240.127,70.578 235.18,78.161    "
   id="polygon513" />
			<polygon
   fill="#333333"
   points="227.77,82.97 235.857,78.838 243.441,73.892 235.365,77.986    "
   id="polygon515" />
		</g>
		<g
   id="g517">
			<polygon
   fill="#1A1A1A"
   points="240.244,83.038 235.844,78.162 230.969,73.789 235.34,78.665    "
   id="polygon519" />
			<polygon
   fill="#1A1A1A"
   points="237.313,84.743 235.939,78.318 233.904,72.094 235.252,78.502    "
   id="polygon521" />
			<polygon
   fill="#1A1A1A"
   points="233.922,84.753 235.945,78.502 237.295,72.094 235.258,78.318    "
   id="polygon523" />
			<polygon
   fill="#1A1A1A"
   points="230.98,83.065 235.857,78.665 240.23,73.789 235.354,78.161    "
   id="polygon525" />
			<polygon
   fill="#1A1A1A"
   points="229.277,80.133 235.701,78.761 241.926,76.725 235.517,78.073    "
   id="polygon527" />
			<polygon
   fill="#1A1A1A"
   points="229.268,76.743 235.517,78.766 241.926,80.115 235.701,78.079    "
   id="polygon529" />
		</g>
		<circle
   opacity="0.8"
   fill="#FFFFFF"
   cx="235.107"
   cy="73.789"
   r="2.158"
   id="circle531" />
		<circle
   opacity="0.7"
   fill="#FFFFFF"
   cx="239.658"
   cy="75.165"
   r="1.137"
   id="circle533" />
		<path
   d="M219.201,78.863c0-8.618,6.986-15.604,15.604-15.604c1.734,0,3.397,0.295,4.956,0.817    c-2.067-1.105-4.426-1.735-6.933-1.735c-8.136,0-14.73,6.595-14.73,14.73c0,3.022,0.913,5.829,2.474,8.167    C219.697,83.29,219.201,81.136,219.201,78.863z"
   id="path535" />
		<path
   fill="none"
   stroke="#000000"
   stroke-width="3"
   stroke-linecap="round"
   d="M219.779,72.617c0,0-4.81,0.475-6.449-2.04"
   id="path537" />
		<path
   fill="none"
   stroke="#000000"
   stroke-width="3"
   stroke-linecap="round"
   d="M221.086,68.741c0,0-3.592-1.523-5.232-4.037"
   id="path539" />
		
			<circle
   opacity="0.7"
   fill="#003707"
   stroke="#009245"
   stroke-width="0.25"
   stroke-linecap="round"
   stroke-linejoin="round"
   cx="235.599"
   cy="78.394"
   r="3.228"
   id="circle541" />
	</g>
	<g
   id="g543">
		<polygon
   fill="#EB7E24"
   points="234.206,87.915 222.271,85.739 228.112,96.575 244.67,92.888   "
   id="polygon545" />
		<g
   id="g547">
			<path
   fill="#EB7E24"
   d="M223.543,85.997c1.188-0.17,2.401-0.258,3.636-0.258c6.329,0,12.117,2.318,16.562,6.15"
   id="path549" />
			<path
   d="M243.414,92.269c-4.508-3.889-10.274-6.029-16.235-6.029c-1.192,0-2.392,0.086-3.565,0.254c0,0,4.695-1.932,10.574-0.174     C240.516,88.212,243.414,92.269,243.414,92.269L243.414,92.269z"
   id="path551" />
		</g>
	</g>
</g>
<radialGradient
   id="SVGID_11_"
   cx="231.8477"
   cy="94.8857"
   r="27.2415"
   gradientTransform="matrix(0.9243 -0.3818 0.3818 0.9243 -18.664 95.6995)"
   gradientUnits="userSpaceOnUse">
	<stop
   offset="0"
   style="stop-color:#EB2C3B"
   id="stop554" />
	<stop
   offset="0.0972"
   style="stop-color:#EB303F;stop-opacity:0.7085"
   id="stop556" />
	<stop
   offset="0.3333"
   style="stop-color:#EC3543;stop-opacity:0"
   id="stop558" />
</radialGradient>
<circle
   opacity="0.5"
   fill="url(#SVGID_11_)"
   cx="232.371"
   cy="96.747"
   r="13.679"
   id="circle560" />
<g
   id="g562">
	<path
   stroke="#000000"
   stroke-linecap="round"
   stroke-linejoin="bevel"
   d="M140.258,67.652c0,0,0.644-11.228-18.74-23.154   c-11.227-6.908-33.255-5.551-35.438-18.444c-1.57-9.271,3.6-12.489,6.086-13.382c4.346-1.562,7.202,2.448,8.334,5.111   c0.968,2.278,0.296,10.413-0.744,10.723s5.885-3.687,2.671-12.016C99.214,8.162,92.845,5.726,87.87,7.148   c-7.199,2.058-8.864,10.919-8.011,16.454c1.034,6.712,4.409,10.634,4.409,10.634s-3.044-1.419-7.296-0.547   c-6.136,1.259-9.657,8.648-8.18,14.527c2.402,9.565,13.049,13.068,18.609,11.585c4.624-1.235,5.743-1.823,5.743-1.823   s-1.04,6.594,2.266,11.613c3.808,5.782,10.416,5.055,13.165,4.058c13.031-4.727,14.254-10.064,19.21-10.181   C133.431,63.336,138.57,64.644,140.258,67.652z"
   id="path564" />
	
		<ellipse
   transform="matrix(0.972 -0.2349 0.2349 0.972 -2.6082 23.1226)"
   stroke="#000000"
   cx="95.77"
   cy="22.511"
   rx="5.607"
   ry="7.541"
   id="ellipse566" />
	
		<radialGradient
   id="SVGID_12_"
   cx="188.8428"
   cy="-21.458"
   r="70.1582"
   gradientTransform="matrix(0.9848 0.1736 -0.1736 0.9848 -51.159 48.7885)"
   gradientUnits="userSpaceOnUse">
		<stop
   offset="0"
   style="stop-color:#AEE0E8"
   id="stop569" />
		<stop
   offset="0.0366"
   style="stop-color:#B3E2E9"
   id="stop571" />
		<stop
   offset="0.304"
   style="stop-color:#D4EFF3"
   id="stop573" />
		<stop
   offset="0.5603"
   style="stop-color:#ECF8FA"
   id="stop575" />
		<stop
   offset="0.7982"
   style="stop-color:#FAFDFE"
   id="stop577" />
		<stop
   offset="1"
   style="stop-color:#FFFFFF"
   id="stop579" />
	</radialGradient>
	<path
   fill="url(#SVGID_12_)"
   d="M137.625,63.367c-1.328-2.945-9.704-11.852-17.533-15.669c-7.829-3.819-18.415-3.616-21.752-5.437   c-3.337-1.819-11.007-5.844-16.732-4.811c-5.728,1.033-7.215,3.178-7.215,3.178s2.735-0.134,5.511-0.507   c2.777-0.374,10.192,0.195,12.962,2.654c-5.518-0.85-17.411,1.613-17.567,3.712c14.805-2.721,24.225-0.938,27.571,1.747   c-8.787-1.179-19.626-0.501-24.426,3.478c4.273-0.479,14.08-2.098,18.232-0.011c0,0-13.403,1.457-13.549,4.641   c11.09-3.051,26.354-4.485,30.872-1.342c-4.907-0.125-13.289,1.231-14.943,6.484c4.962-3.684,16.482-4.726,18.949-1.95   c-5.068,0.093-14.99,2.221-16.366,7.253c5.831-3.409,11.292-4.335,12.797-3.084c-3.24,1.893-8.414,4.07-8.737,6.6   c3.83-1.796,5.617-1.186,9.389-3.153c3.881-2.023,8.095-5.12,9.946-5.72C130.753,59.577,137.625,63.367,137.625,63.367z"
   id="path581" />
</g>


<path
   fill="none"
   stroke="#000000"
   d="M238.926,128.052"
   id="path587" />
<path
   d="M241.699,99.025c-2.731-2.659-2.694-2.651-6.309-3.647c0,0,3.346,1.529,3.776,1.818  C240.028,97.773,241.699,99.025,241.699,99.025z"
   id="path589" />
<path
   d="M243.032,101.329c-2.731-2.659-2.694-2.651-6.309-3.647c0,0,3.346,1.529,3.776,1.818  C241.361,100.077,243.032,101.329,243.032,101.329z"
   id="path591" />
<path
   d="M175.073,85.451c-2.438-0.438-3.486-0.363-5.959,0.461c0,0,2.524-0.412,2.886-0.412  C172.721,85.5,175.073,85.451,175.073,85.451z"
   id="path593" />
<path
   d="M164.421,116.649c0.768,2.354,5.496,7.685,7.474,9.032c0,0-5.807-6.029-5.978-6.348  C165.576,118.699,164.421,116.649,164.421,116.649z"
   id="path595" />
<path
   d="M165.276,119.218c0.474,2.532,5.578,7.244,7.474,9.032c0,0-5.807-6.029-5.978-6.348  C166.432,121.268,165.276,119.218,165.276,119.218z"
   id="path597" />
</svg>